<?xml version="1.0" encoding="UTF-8"?>
<svg width="344px" height="375px" viewBox="0 0 344 375" version="1.1" xmlns="http://www.w3.org/2000/svg" xmlns:xlink="http://www.w3.org/1999/xlink">
    <!-- Generator: Sketch 41 (35326) - http://www.bohemiancoding.com/sketch -->
    <title>Artboard</title>
    <desc>Created with Sketch.</desc>
    <defs>
        <polygon id="path-1" points="0 0 344 0 344 375 0 375"></polygon>
        <path d="M10.4561,21.7734 L20.3821,21.1724 L24.8391,10.7644 C21.5351,10.9544 18.2291,11.1494 14.9181,11.3494 L10.4561,21.7734 Z M7.4231,3.3044 L2.9651,13.7174 L9.3671,21.3064 L13.8301,10.8854 L7.4211,3.3104 L7.4231,3.3044 Z M8.4891,2.7574 L14.7791,10.1924 L19.1471,9.9214 L12.8611,2.4954 L8.4891,2.7574 Z M14.3281,2.4044 L20.6051,9.8324 L24.4961,9.6144 L18.2071,2.1804 L14.3281,2.4044 Z M19.3761,0.5484 L26.9431,9.4574 C27.1741,9.7484 27.2261,10.1414 27.0791,10.4814 L21.9301,22.5104 C21.7761,22.8854 21.4021,23.1244 20.9951,23.1014 L9.4241,23.7924 C9.1171,23.8034 8.8211,23.6774 8.6191,23.4474 L1.0761,14.5204 C0.8331,14.2444 0.7721,13.8514 0.9171,13.5134 L0.9101,13.5094 L6.0611,1.4824 C6.2271,1.1114 6.5991,0.8764 7.0061,0.8844 L18.5711,0.2044 C18.8801,0.1784 19.1821,0.3064 19.3761,0.5484 Z" id="path-3"></path>
        <path d="M4.3926,11.4989 C3.3296,10.5379 3.3726,8.7379 3.4066,7.2919 C3.4106,7.1289 3.4146,6.9719 3.4156,6.8189 L3.4146,6.7939 C3.4156,6.3669 3.3186,6.1909 3.2556,6.0759 C3.2446,6.0519 3.2326,6.0329 3.2246,6.0139 C3.1436,5.8899 3.1286,5.7329 3.1866,5.5969 C3.2396,5.4699 3.3396,5.4369 3.4286,5.5189 C3.4476,5.5329 3.4616,5.5519 3.4756,5.5719 C3.5286,5.6389 3.5886,5.6969 3.6546,5.7509 C3.9356,6.0059 4.2426,6.0819 4.5346,5.9719 C4.8256,5.8599 5.0726,5.5869 5.2266,5.2059 C5.6476,4.1849 5.4286,3.0809 4.6686,2.3949 C4.4236,2.1739 4.3966,2.1819 4.3366,2.3179 L2.2496,7.2109 C1.8956,8.0399 2.1136,8.3249 2.2886,8.5519 C2.3796,8.6699 2.5056,8.8319 2.4126,9.0489 C2.3086,9.2939 2.1176,9.1189 2.0346,9.0439 C1.9366,8.9559 1.8656,8.8819 1.7856,8.7979 C1.6816,8.6889 1.5636,8.5659 1.3476,8.3709 C1.1786,8.2189 1.0336,8.1029 0.9046,7.9989 C0.7996,7.9169 0.7066,7.8439 0.6216,7.7679 C0.5126,7.6589 0.4776,7.4959 0.5356,7.3529 C0.6136,7.1699 0.7456,7.2209 0.8406,7.2559 C1.0086,7.3189 1.2186,7.3979 1.4856,6.7729 L3.4626,2.1329 C3.7336,1.5029 3.5866,1.3529 3.4446,1.2069 C3.3656,1.1259 3.2186,0.9749 3.3236,0.7289 C3.3886,0.5749 3.5126,0.5229 3.6116,0.6119 C3.6296,0.6279 3.6596,0.6599 3.7026,0.7059 C3.8106,0.8179 3.9886,1.0109 4.2556,1.2499 C4.4176,1.3959 4.5316,1.4819 4.6396,1.5669 C4.7486,1.6509 4.8586,1.7379 5.0156,1.8819 C6.1596,2.9179 6.5276,4.2809 5.9946,5.5319 C5.8276,5.9219 5.2126,6.8549 4.3126,6.7109 L4.2336,6.7069 L4.2216,6.7059 C4.1796,7.6609 4.2196,8.6189 4.3396,9.5669 C4.4466,10.3549 4.6606,10.9959 4.9396,11.3749 C4.9966,11.4589 5.0076,11.5659 4.9686,11.6609 C4.9556,11.7149 4.9216,11.7589 4.8756,11.7859 C4.8056,11.8179 4.7056,11.7829 4.3926,11.4989 Z" id="path-5"></path>
        <polygon id="path-7" points="3.334 1.8974 0.985 0.8914 0.484 2.0654 2.831 3.0714"></polygon>
        <polygon id="path-9" points="4.3281 2.2441 0.8071 0.7371 0.3051 1.9101 3.8261 3.4181"></polygon>
        <polygon id="path-11" points="3.3232 1.5907 0.9762 0.5867 0.4732 1.7597 2.8202 2.7647"></polygon>
        <path d="M8.918,2.6689 C5.516,2.6689 2.748,5.4369 2.748,8.8389 C2.748,12.2409 5.516,15.0089 8.918,15.0089 C12.319,15.0089 15.088,12.2409 15.088,8.8389 C15.088,5.4369 12.319,2.6689 8.918,2.6689 Z M8.918,17.3429 C4.229,17.3429 0.414,13.5279 0.414,8.8389 C0.414,4.1489 4.229,0.3339 8.918,0.3339 C13.607,0.3339 17.422,4.1489 17.422,8.8389 C17.422,13.5279 13.607,17.3429 8.918,17.3429 Z" id="path-13"></path>
        <path d="M6.2529,15.1117 L13.2309,15.1117 L16.7199,9.0687 L13.2309,3.0237 L6.2529,3.0237 L2.7629,9.0687 L6.2529,15.1117 Z M14.5769,17.4457 L4.9049,17.4457 L0.0679,9.0687 L4.9049,0.6897 L14.5769,0.6897 L19.4149,9.0687 L14.5769,17.4457 Z" id="path-15"></path>
        <path d="M1.8184,17.1152 C1.7134,17.5202 1.2924,17.7652 0.8874,17.6592 C0.4794,17.5452 0.2464,17.1312 0.3524,16.7242 C0.7104,15.3682 1.5254,14.5052 2.4724,13.9762 C3.8004,13.2462 5.3954,13.1702 6.3044,13.3252 C6.4874,13.3552 6.6724,13.3372 6.8074,13.2482 C6.8824,13.1952 6.9644,13.1312 7.0074,13.0482 C6.4474,12.2882 6.3454,11.4122 6.2484,10.6732 C6.2074,10.3192 6.1644,10.0052 6.1044,9.9152 L6.1014,9.9032 L6.0914,9.8952 C5.8524,9.5232 5.5614,8.8752 5.4914,8.2032 C5.4184,7.5382 5.5424,6.8562 6.0504,6.3312 C6.0074,5.7412 6.0774,5.0962 6.2314,4.4632 C6.4324,3.6602 6.7854,2.8702 7.2324,2.1962 L7.2714,2.1492 C7.9124,1.1872 8.7134,0.5772 9.6294,0.2612 C10.6164,-0.0738 11.7194,-0.0778 12.8814,0.2042 C13.3094,0.3122 13.9044,0.4632 14.4514,0.7132 C15.0684,1.0002 15.6224,1.4192 15.8694,2.0582 C16.6664,2.1882 17.2314,2.8032 17.6044,3.5652 C18.0524,4.4922 18.2284,5.7232 18.1654,6.3982 C18.1034,6.9062 17.9674,7.4212 17.7724,7.9312 C17.6054,8.3372 17.3944,8.7552 17.1414,9.1602 C17.3814,9.8962 17.1494,10.5902 16.7424,11.1522 C16.3474,11.7082 15.7774,12.1312 15.4024,12.3342 L15.3884,12.3432 L15.3614,12.3452 L15.3654,12.3462 C15.2724,12.4012 15.0844,12.6502 14.8704,12.9472 C14.4374,13.5272 13.9174,14.2212 13.0934,14.6182 C13.0794,14.7172 13.1024,14.8222 13.1574,14.9162 C13.2474,15.0622 13.3814,15.1712 13.5614,15.2362 C14.4254,15.5422 15.7844,16.3832 16.5744,17.6792 C17.1504,18.6072 17.4334,19.7602 17.0764,21.1172 C16.9694,21.5272 16.5544,21.7732 16.1394,21.6642 C15.7374,21.5532 15.4924,21.1352 15.5974,20.7282 C15.8314,19.8462 15.6514,19.0912 15.2744,18.4742 C14.6874,17.5212 13.6864,16.8992 13.0484,16.6702 C12.5234,16.4922 12.1004,16.1352 11.8444,15.6912 C11.5494,15.1862 11.3544,13.5772 12.2224,13.3112 C12.8274,13.1312 13.2664,12.5272 13.6394,12.0302 C13.9704,11.5762 14.2624,11.1972 14.6634,10.9942 L14.6744,10.9962 L14.6764,10.9872 C14.9074,10.8602 15.2614,10.6002 15.4954,10.2662 C15.6634,10.0322 15.7654,9.7542 15.6484,9.5152 C15.5064,9.2602 15.5434,8.8462 15.7094,8.6042 C15.9774,8.1752 16.1974,7.7652 16.3474,7.3662 C16.5004,6.9782 16.5964,6.6102 16.6404,6.2522 C16.6854,5.7742 16.5644,4.9102 16.2234,4.2432 C16.0504,3.8712 15.8334,3.5882 15.5934,3.5592 C15.3314,3.5282 15.0894,3.4272 14.8794,3.2592 C14.7094,3.1122 14.5644,2.9182 14.4774,2.6932 L14.4474,2.6172 C14.3864,2.4212 14.1124,2.2432 13.8084,2.0892 C13.3864,1.9002 12.8894,1.7772 12.5314,1.6922 C11.6434,1.4752 10.8364,1.4672 10.1314,1.7092 C9.5274,1.9092 8.9914,2.3302 8.5474,2.9892 L8.5044,3.0482 C8.1564,3.5742 7.8734,4.2082 7.7164,4.8412 C7.5714,5.3992 7.5304,5.9622 7.5954,6.4562 C7.6364,6.6242 7.6234,6.8052 7.5454,6.9762 C7.3374,7.4402 6.9364,7.3452 7.0064,8.0392 C7.0524,8.4442 7.2274,8.8272 7.3704,9.0562 L7.3844,9.0832 L7.3934,9.0962 C7.6424,9.4712 7.6974,9.9512 7.7644,10.4872 C7.8394,11.1012 7.9394,11.8542 8.3654,12.3082 C8.5624,12.4952 8.6634,12.7812 8.5894,13.0592 C8.4224,13.6952 8.1824,14.2222 7.5804,14.5702 C7.1314,14.8282 6.5864,14.9322 6.0384,14.8342 L6.0394,14.8292 C5.3784,14.7182 4.1884,14.7642 3.2144,15.3072 C2.5924,15.6612 2.0514,16.2272 1.8184,17.1152 Z" id="path-17"></path>
        <path d="M21.167,16.9579 L17.045,18.0809 L15.17,11.2089 L9.671,12.7089 L11.546,19.5809 L7.422,20.7059 L4.476,9.9029 L9.85,2.5289 L18.221,6.1539 L21.167,16.9579 Z M22.451,6.4299 L9.893,0.9939 C9.586,0.8619 9.23,0.9589 9.035,1.2279 L6.146,5.1899 L5.674,3.4609 C5.466,2.6999 4.684,2.2549 3.924,2.4609 C3.165,2.6689 2.717,3.4499 2.925,4.2109 L3.996,8.1399 L0.975,12.2869 C0.743,12.6039 0.813,13.0499 1.132,13.2829 C1.448,13.5149 1.895,13.4449 2.126,13.1279 L3.402,11.3759 L6.049,21.0799 C6.255,21.8389 7.039,22.2869 7.798,22.0799 L11.923,20.9549 C12.68,20.7479 13.128,19.9659 12.921,19.2059 L11.422,13.7079 L14.172,12.9579 L15.672,18.4559 C15.878,19.2159 16.662,19.6619 17.42,19.4559 L21.543,18.3309 C22.303,18.1249 22.75,17.3409 22.543,16.5809 L19.896,6.8779 L21.887,7.7379 C22.039,7.8059 22.204,7.8119 22.356,7.7699 C22.556,7.7169 22.733,7.5729 22.824,7.3659 C22.978,7.0069 22.811,6.5879 22.451,6.4299 Z" id="path-19"></path>
        <path d="M1.7295,23.6161 L3.1515,7.9591 L4.0025,7.9591 L6.3505,7.9591 L6.3505,9.7431 C5.8855,10.0131 5.5695,10.5131 5.5695,11.0911 C5.5695,11.9551 6.2705,12.6571 7.1335,12.6571 C7.9995,12.6571 8.7005,11.9551 8.7005,11.0911 C8.7005,10.5131 8.3835,10.0131 7.9175,9.7431 L7.9175,7.9591 L14.1795,7.9591 L14.1795,9.7431 C13.7135,10.0131 13.3975,10.5131 13.3975,11.0911 C13.3975,11.9551 14.0975,12.6571 14.9625,12.6571 C15.8275,12.6571 16.5285,11.9551 16.5285,11.0911 C16.5285,10.5131 16.2105,10.0131 15.7465,9.7431 L15.7465,7.9591 L18.0935,7.9591 L18.9445,7.9591 L20.3685,23.6161 L1.7295,23.6161 Z M7.9175,4.8281 C7.9175,3.1011 9.3215,1.6971 11.0475,1.6971 C12.7745,1.6971 14.1795,3.1011 14.1795,4.8281 L14.1795,6.3941 L7.9175,6.3941 L7.9175,4.8281 Z M20.4395,7.1061 C20.4035,6.7031 20.0645,6.3941 19.6605,6.3941 L18.0935,6.3941 L15.7465,6.3941 L15.7465,4.8281 C15.7465,2.2381 13.6385,0.1311 11.0475,0.1311 C8.4585,0.1311 6.3505,2.2381 6.3505,4.8281 L6.3505,6.3941 L4.0025,6.3941 L2.4375,6.3941 C2.0325,6.3941 1.6945,6.7031 1.6575,7.1061 L0.0915,24.3281 C0.0725,24.5471 0.1455,24.7641 0.2925,24.9271 C0.4425,25.0901 0.6525,25.1811 0.8725,25.1811 L21.2245,25.1811 C21.4445,25.1811 21.6545,25.0901 21.8035,24.9271 C21.9525,24.7641 22.0245,24.5471 22.0055,24.3281 L20.4395,7.1061 Z" id="path-21"></path>
        <path d="M21.7529,15.6825 L19.7549,15.6825 C19.3609,13.8805 17.5809,12.7405 15.7749,13.1335 C14.5029,13.4115 13.5089,14.4095 13.2269,15.6825 L10.6239,15.6825 C10.2299,13.8805 8.4479,12.7405 6.6449,13.1335 C5.3689,13.4115 4.3759,14.4095 4.0979,15.6825 L2.0169,15.6825 L2.0169,2.2125 L16.9269,2.2125 L17.5629,3.1725 L14.6769,3.1725 C14.3839,3.1725 14.1449,3.4125 14.1449,3.7095 L14.1449,8.4315 C14.1449,8.7255 14.3839,8.9675 14.6769,8.9675 L21.4089,8.9675 L21.7529,9.4865 L21.7529,15.6825 Z M18.4349,17.1115 C18.0409,18.1875 16.8509,18.7395 15.7729,18.3465 C14.6969,17.9535 14.1449,16.7615 14.5389,15.6845 C14.9319,14.6095 16.1239,14.0545 17.2009,14.4495 C18.0189,14.7485 18.5609,15.5265 18.5609,16.3985 C18.5609,16.6395 18.5199,16.8835 18.4349,17.1115 Z M9.3049,17.1115 C8.9119,18.1875 7.7199,18.7395 6.6429,18.3465 C5.5689,17.9535 5.0149,16.7615 5.4069,15.6845 C5.8049,14.6095 6.9949,14.0545 8.0689,14.4495 C8.8889,14.7485 9.4339,15.5265 9.4339,16.3985 C9.4339,16.6395 9.3909,16.8835 9.3049,17.1115 Z M18.2759,4.2435 L20.6939,7.8935 L15.2139,7.8935 L15.2139,4.2435 L18.2759,4.2435 Z M23.0599,8.8765 L17.9079,1.1045 C17.7739,0.9065 17.5499,0.7865 17.3119,0.7865 L1.3039,0.7865 C0.9109,0.7865 0.5909,1.1045 0.5909,1.4985 L0.5909,16.3985 C0.5909,16.7905 0.9109,17.1115 1.3039,17.1115 L4.0979,17.1115 C4.4919,18.9125 6.2749,20.0555 8.0769,19.6605 C9.3549,19.3805 10.3459,18.3835 10.6259,17.1115 L13.2269,17.1115 C13.6209,18.9125 15.4049,20.0555 17.2069,19.6605 C18.4799,19.3805 19.4749,18.3835 19.7549,17.1115 L22.4659,17.1115 C22.8609,17.1115 23.1789,16.7905 23.1789,16.3985 L23.1789,9.2705 C23.1819,9.1285 23.1369,8.9945 23.0599,8.8765 Z" id="path-23"></path>
        <path d="M12.356,9.22420356 L12.356,9.1223296 C12.341677,8.62770061 12.1189159,8.1421188 11.7035,7.8078 L2.8505,0.6888 C2.5298378,0.430820436 2.14517227,0.304302243 1.76240696,0.3025 L1.74581025,0.3025 C1.23655883,0.304897578 0.732358904,0.527962354 0.3885,0.9558 C0.130478796,1.27641051 0.00407161608,1.6604713 0.0021,2.04260436 L0.0021,2.06077228 C0.00472694808,2.56997392 0.228191949,3.07391065 0.6555,3.4178 L9.5075,10.5358 C9.8315,10.7958 10.2185,10.9228 10.6045,10.9228 C11.1165,10.9228 11.6245,10.6988 11.9695,10.2698 C12.2186583,9.96071233 12.3453246,9.59265326 12.356,9.224202 L12.356,9.22420356 Z" id="path-25"></path>
        <path d="M13.6152,2.4277 C13.5132,2.7987 13.2892,3.1387 12.9532,3.3827 L3.7532,10.0447 C2.9692,10.6137 1.8742,10.4377 1.3072,9.6547 C0.7402,8.8707 0.9172,7.7757 1.6992,7.2087 L10.9002,0.5457 C11.6822,-0.0203 12.7782,0.1537 13.3442,0.9377 C13.6692,1.3847 13.7492,1.9327 13.6152,2.4277 Z" id="path-27"></path>
        <path d="M13.0215,2.1581 C12.9185,2.4101 12.6985,2.6151 12.3725,2.7281 L3.4185,5.8071 C2.6575,6.0691 1.6045,5.7301 1.0705,5.0491 C0.5335,4.3681 0.7195,3.6031 1.4795,3.3411 L10.4335,0.2621 C11.1945,0.0011 12.2475,0.3391 12.7825,1.0201 C13.0875,1.4081 13.1585,1.8251 13.0215,2.1581 Z" id="path-29"></path>
        <path d="M17.6601865,23.08 L17.7468176,23.08 C17.9411384,23.0750053 18.0542088,23.0350541 18.1438,22.9749 C18.2628,22.8839 18.3418,22.7489 18.3528,22.6039 C18.358662,22.5725057 18.3616053,22.5411284 18.3618,22.5100797 L18.3618,22.5034738 C18.3605156,22.2986991 18.2398289,22.1092281 18.0488,22.0249 C16.8668,21.5249 15.7078,20.3849 14.7528,18.8079 C13.6428,16.9219 12.7788,14.9049 12.1708,12.8029 L12.2118,12.7939 L12.4608,12.7109 C15.4308,12.0629 16.6598,9.4019 16.8868,8.3909 C17.6118,5.1469 15.4018,2.6119 10.9678,1.6209 C10.3618,1.4839 9.9508,1.4179 9.5298,1.3489 C9.1118,1.2789 8.6898,1.2119 8.0678,1.0729 C7.0328,0.8409 6.3198,0.6259 5.8928,0.4989 C5.7208,0.4369 5.5938,0.4089 5.5278,0.3949 C5.5178,0.3929 5.5068,0.3909 5.4968,0.3879 C5.4593,0.3817 5.42198,0.37864 5.385118,0.37853 L5.38099308,0.37853 C5.05092077,0.379514915 4.75847238,0.616903024 4.7038,0.9539 C4.5608,1.5939 5.1448,1.7579 5.4558,1.8489 C6.0188,2.0069 6.5998,2.1789 6.2338,3.8119 L3.5368,15.8539 C3.1748,17.4729 2.4478,17.5279 1.8658,17.5769 C1.5358,17.6009 1.0798,17.6269 0.9718,18.1079 C0.962127596,18.1513207 0.957484458,18.193636 0.957299999,18.2346834 L0.9573,18.2397809 C0.958859696,18.5865648 1.27860392,18.8418929 1.5698,18.9069 C1.8938,18.9789 2.2438,19.0369 2.6398,19.1009 C3.1278,19.1859 3.6798,19.2759 4.3328,19.4229 C5.1668,19.6089 5.6378,19.7459 6.0508,19.8629 C6.3728,19.9619 6.6488,20.0439 7.0288,20.1289 C7.3458,20.1999 8.0888,20.3659 8.2298,19.7359 C8.3558,19.1719 7.8358,18.9569 7.4508,18.8009 C6.7268,18.5069 5.8198,18.1279 6.3018,15.9729 L9.1488,3.2629 C9.2278,2.9109 9.3158,2.8619 10.2628,3.0739 C13.1948,3.7309 14.7418,5.8629 14.1988,8.5019 C13.9918,9.4789 13.4118,10.3309 12.5768,10.8759 C11.6948,11.4319 10.6238,11.6029 9.6178,11.3469 C9.3758,11.3049 9.1388,11.2429 8.9168,11.1519 C8.8538,11.1179 8.7888,11.0959 8.7248,11.0859 C8.7078,11.0779 8.6928,11.0739 8.6758,11.0709 C8.3688,11.0109 8.0728,11.2079 8.0128,11.5169 C7.9348,11.8679 8.1218,12.2279 8.4588,12.3699 C8.4928,12.3979 8.5448,12.4309 8.6008,12.4669 C8.8808,12.6459 9.3208,12.9219 9.6558,13.8369 L9.6818,13.8879 C9.7948,14.2129 9.9028,14.5649 10.0158,14.9119 C11.0228,18.0499 12.2718,21.9539 16.3828,22.8749 C17.0052776,23.0140843 17.397475,23.0738708 17.6601867,23.08 L17.6601865,23.08 Z" id="path-31"></path>
    </defs>
    <g id="Page-1" stroke="none" stroke-width="1" fill="none" fill-rule="evenodd">
        <g id="Artboard">
            <g id="bg">
                <g id="Group-3">
                    <mask id="mask-2" fill="white">
                        <use xlink:href="#path-1"></use>
                    </mask>
                    <g id="Clip-2"></g>
                    <polygon id="Fill-1" fill="#FBFBFB" mask="url(#mask-2)" points="0 375 344 375 344 0 0 0"></polygon>
                </g>
                <g id="Group-52" transform="translate(26.000000, 25.000000)">
                    <g id="Group-6" transform="translate(61.000000, 95.000000)">
                        <mask id="mask-4" fill="white">
                            <use xlink:href="#path-3"></use>
                        </mask>
                        <g id="Clip-5"></g>
                        <polygon id="Fill-4" fill="#D3CBDF" mask="url(#mask-4)" points="-4.16053 28.7931 32.16157 28.7931 32.16157 -4.79888 -4.16053 -4.79888"></polygon>
                    </g>
                    <g id="Group-9" transform="translate(65.000000, 101.000000)">
                        <mask id="mask-6" fill="white">
                            <use xlink:href="#path-5"></use>
                        </mask>
                        <g id="Clip-8"></g>
                        <polygon id="Fill-7" fill="#D3CBDF" mask="url(#mask-6)" points="-4.49213 16.7956 11.23442 16.7956 11.23442 -4.43158 -4.49213 -4.43158"></polygon>
                    </g>
                    <g id="Group-12" transform="translate(61.000000, 97.000000)">
                        <mask id="mask-8" fill="white">
                            <use xlink:href="#path-7"></use>
                        </mask>
                        <g id="Clip-11"></g>
                        <polygon id="Fill-10" fill="#D3CBDF" mask="url(#mask-8)" points="-4.516 8.0714 8.334 8.0714 8.334 -4.1086 -4.516 -4.1086"></polygon>
                    </g>
                    <g id="Group-15" transform="translate(59.000000, 99.000000)">
                        <mask id="mask-10" fill="white">
                            <use xlink:href="#path-9"></use>
                        </mask>
                        <g id="Clip-14"></g>
                        <polygon id="Fill-13" fill="#D3CBDF" mask="url(#mask-10)" points="-4.6949 8.4181 9.3281 8.4181 9.3281 -4.2629 -4.6949 -4.2629"></polygon>
                    </g>
                    <g id="Group-18" transform="translate(59.000000, 102.000000)">
                        <mask id="mask-12" fill="white">
                            <use xlink:href="#path-11"></use>
                        </mask>
                        <g id="Clip-17"></g>
                        <polygon id="Fill-16" fill="#D3CBDF" mask="url(#mask-12)" points="-4.5268 7.7647 8.3232 7.7647 8.3232 -4.4133 -4.5268 -4.4133"></polygon>
                    </g>
                    <g id="Group-21" transform="translate(115.000000, 262.000000)">
                        <mask id="mask-14" fill="white">
                            <use xlink:href="#path-13"></use>
                        </mask>
                        <g id="Clip-20"></g>
                        <polygon id="Fill-19" fill="#D3CBDF" mask="url(#mask-14)" points="-4.586 22.3429 22.422 22.3429 22.422 -4.6661 -4.586 -4.6661"></polygon>
                    </g>
                    <path d="M0,184.132 L21.343,190.837 L16.48,169 L0,184.132 Z M4.557,183.118 L15.079,173.454 L18.185,187.4 L4.557,183.118 Z" id="Page-1" fill="#F6E2AD"></path>
                    <g id="Group-24" transform="translate(289.000000, 21.000000)">
                        <mask id="mask-16" fill="white">
                            <use xlink:href="#path-15"></use>
                        </mask>
                        <g id="Clip-23"></g>
                        <polygon id="Fill-22" fill="#EEB3BA" mask="url(#mask-16)" points="-4.9321 22.4457 24.4149 22.4457 24.4149 -4.3103 -4.9321 -4.3103"></polygon>
                    </g>
                    <g id="Group-30" transform="translate(61.000000, 0.000000)">
                        <mask id="mask-18" fill="white">
                            <use xlink:href="#path-17"></use>
                        </mask>
                        <g id="Clip-29"></g>
                        <polygon id="Fill-28" fill="#EEB3BA" mask="url(#mask-18)" points="-4.67312 26.69 23.17778 26.69 23.17778 -4.99928 -4.67312 -4.99928"></polygon>
                    </g>
                    <g id="Group-33" transform="translate(216.000000, 75.000000)">
                        <mask id="mask-20" fill="white">
                            <use xlink:href="#path-19"></use>
                        </mask>
                        <g id="Clip-32"></g>
                        <polygon id="Fill-31" fill="#F6E2AD" mask="url(#mask-20)" points="-4.1618 27.1304 27.88135 27.1304 27.88135 -4.06462 -4.1618 -4.06462"></polygon>
                    </g>
                    <g id="Group-36" transform="translate(147.000000, 160.000000)">
                        <mask id="mask-22" fill="white">
                            <use xlink:href="#path-21"></use>
                        </mask>
                        <g id="Clip-35"></g>
                        <polygon id="Fill-34" fill="#EEB3BA" mask="url(#mask-22)" points="-4.9115 30.1811 27.00845 30.1811 27.00845 -4.8689 -4.9115 -4.8689"></polygon>
                    </g>
                    <g id="Group-39" transform="translate(281.000000, 174.000000)">
                        <mask id="mask-24" fill="white">
                            <use xlink:href="#path-23"></use>
                        </mask>
                        <g id="Clip-38"></g>
                        <polygon id="Fill-37" fill="#D3CBDF" mask="url(#mask-24)" points="-4.4091 24.7386 28.17904 24.7386 28.17904 -4.21346 -4.4091 -4.21346"></polygon>
                    </g>
                    <g id="Group-42" transform="translate(298.000000, 249.000000)">
                        <mask id="mask-26" fill="white">
                            <use xlink:href="#path-25"></use>
                        </mask>
                        <g id="Clip-41"></g>
                        <polygon id="Fill-40" fill="#F6E2AD" mask="url(#mask-26)" points="-4.9979 15.9228 17.35676 15.9228 17.35676 -4.69752 -4.9979 -4.69752"></polygon>
                    </g>
                    <g id="Group-45" transform="translate(19.000000, 298.000000)">
                        <mask id="mask-28" fill="white">
                            <use xlink:href="#path-27"></use>
                        </mask>
                        <g id="Clip-44"></g>
                        <polygon id="Fill-43" fill="#EEB3BA" mask="url(#mask-28)" points="-4.02501 15.37876 18.67721 15.37876 18.67721 -4.78665 -4.02501 -4.78665"></polygon>
                    </g>
                    <g id="Group-48" transform="translate(134.000000, 37.000000)">
                        <mask id="mask-30" fill="white">
                            <use xlink:href="#path-29"></use>
                        </mask>
                        <g id="Clip-47"></g>
                        <polygon id="Fill-46" fill="#D3CBDF" mask="url(#mask-30)" points="-4.2367 10.8957 18.08832 10.8957 18.08832 -4.826 -4.2367 -4.826"></polygon>
                    </g>
                    <g id="Group-51" transform="translate(243.000000, 308.000000)">
                        <mask id="mask-32" fill="white">
                            <use xlink:href="#path-31"></use>
                        </mask>
                        <g id="Clip-50"></g>
                        <polygon id="Fill-49" fill="#F6E2AD" mask="url(#mask-32)" points="-4.0427 28.08053 23.36182 28.08053 23.36182 -4.62147 -4.0427 -4.62147"></polygon>
                    </g>
                </g>
            </g>
        </g>
    </g>
</svg>