<svg xmlns="http://www.w3.org/2000/svg" viewBox="588 -908.487 72.696 106.405">
  <defs>
    <style>
      .cls-1, .cls-2 {
        fill: #fff;
      }

      .cls-2 {
        font-size: 30px;
        font-family: Gilroy-ExtraBold, Gilroy;
        font-weight: 800;
      }
    </style>
  </defs>
  <g id="Group_2237" data-name="Group 2237" transform="translate(588 -908.487)">
    <path id="Path_1" data-name="Path 1" class="cls-1" d="M70.311,74.649c0-.422-.633-.633-.633-.633-6.326-1.265-12.02-5.483-16.448-10.122a111.7,111.7,0,0,1-15.6-21.72c-.633-1.687.211-1.687.211-1.687h0c12.231-4.639,14.129-16.87,14.129-20.244C51.964,4.85,37.414.211,24.129.211,19.068,0,17.381.422,12.32.422,6.2.422,2.62,0,1.776,0A1.441,1.441,0,0,0,.3,1.476c0,3.8,8.435-2.53,8.435,9.911V61.153c0,11.6-8.013,8.224-8.013,11.176,0,.843,1.054,1.265,1.687,1.265,2.952,0,6.537-.422,11.387-.422,6.115,0,7.592.422,11.176.422,2.531,0,2.952-.422,2.952-1.265,0-3.585-10.966,1.9-10.966-13.074V6.748c0-3.163,2.32-3.163,5.694-3.163,12.02,0,21.3,6.748,21.509,19.19.211,8.435-6.326,16.659-16.87,16.659a19.53,19.53,0,0,1-3.8-.211c-.422,0-1.054.211-1.054.843,0,.844.844,1.476,1.687,1.687,1.265.422,3.8.843,6.537,5.272h0c7.381,11.6,15.394,28.89,33.529,28.89,6.748,0,6.115-.633,6.115-1.265" transform="translate(2.37 0)"/>
    <text id="_.com" data-name=".com" class="cls-2" transform="translate(0 98.405)"><tspan x="0" y="0">.com</tspan></text>
  </g>
</svg>
